# xmcd CD database file
#
# Track frame offsets:
#	150
#	12485
#	27270
#	57270
#	87820
#	129497
#	165480
#	188715
#	210020
#	228880
#
# Disc length: 3208 seconds
#
# Revision: 0
# Processed by: cddbd v1.5.1PL0 Copyright (c) Steve Scherf et al.
# Submitted via: CDex 1.51
#
DISCID=6f0c860a
DTITLE=Tsuyoshi Yamamoto Trio - Falling In Love With Love
DYEAR=2002
DGENRE=Jazz
TTITLE0=I've Grown Accuctomed To Her Face
TTITLE1=Soon It's Gonna Rain
TTITLE2=My One And Only Love
TTITLE3=My Funny Valentine
TTITLE4=Medley for Chet Baker
TTITLE5=Falling In Love With Love
TTITLE6=We'll Be Together Again
TTITLE7=A Shade Of Love
TTITLE8=Estate
TTITLE9=Love Me Tender
EXTD=YEAR: 2002
EXTT0=
EXTT1=
EXTT2=
EXTT3=
EXTT4=
EXTT5=
EXTT6=
EXTT7=
EXTT8=
EXTT9=
PLAYORDER=
